{"accessors" : [{"bufferView" : 0, "byteOffset" : 0, "componentType" : 5123, "count" : 276, "type" : "SCALAR", "max" : [240], "min" : [0]}, {"bufferView" : 1, "byteOffset" : 0, "componentType" : 5126, "count" : 241, "type" : "VEC3", "max" : [33.37950134277344, 10, 11.093700408935547], "min" : [-33.37950134277344, -1.8928100189441466E-06, -43.3025016784668], "name" : "POSITION"}, {"bufferView" : 1, "byteOffset" : 12, "componentType" : 5126, "count" : 241, "type" : "VEC2", "max" : [6.105179786682129, 2.6260499954223633], "min" : [-6.105179786682129, -4.330249786376953], "name" : "TEXCOORD_0"}, {"bufferView" : 1, "byteOffset" : 20, "componentType" : 5126, "count" : 241, "type" : "VEC3", "max" : [0.9971917271614075, 0.5416123270988464, 0.986045777797699], "min" : [-0.9971917271614075, -0.9955083131790161, -1.0000044107437134], "name" : "NORMAL"}], "asset" : {"generator" : "Aspose.3D 22.10", "version" : "2.0"}, "buffers" : [{"uri" : "data:application/octet-stream;base64,", "byteLength" : 9392}], "bufferViews" : [{"buffer" : 0, "byteOffset" : 0, "byteLength" : 552, "target" : 34963}, {"buffer" : 0, "byteOffset" : 556, "byteLength" : 8832, "byteStride" : 32, "target" : 34962}], "meshes" : [{"primitives" : [{"attributes" : {"POSITION" : 1, "TEXCOORD_0" : 2, "NORMAL" : 3}, "indices" : 0, "mode" : 4}], "name" : ""}], "nodes" : [{"mesh" : 0, "name" : ""}], "scene" : 0, "scenes" : [{"nodes" : [0]}]}